<svg width="11" height="14" viewBox="0 0 11 14" fill="none" xmlns="http://www.w3.org/2000/svg">
<path d="M5.59994 6.99992C5.9666 6.99992 6.28049 6.86936 6.5416 6.60825C6.80271 6.34714 6.93327 6.03325 6.93327 5.66658C6.93327 5.29992 6.80271 4.98603 6.5416 4.72492C6.28049 4.46381 5.9666 4.33325 5.59994 4.33325C5.23327 4.33325 4.91938 4.46381 4.65827 4.72492C4.39716 4.98603 4.2666 5.29992 4.2666 5.66658C4.2666 6.03325 4.39716 6.34714 4.65827 6.60825C4.91938 6.86936 5.23327 6.99992 5.59994 6.99992ZM5.59994 11.8999C6.95549 10.6555 7.96105 9.52492 8.6166 8.50825C9.27216 7.49158 9.59994 6.58881 9.59994 5.79992C9.59994 4.58881 9.21382 3.59714 8.4416 2.82492C7.66938 2.0527 6.72216 1.66659 5.59994 1.66659C4.47771 1.66659 3.53049 2.0527 2.75827 2.82492C1.98605 3.59714 1.59993 4.58881 1.59993 5.79992C1.59993 6.58881 1.92771 7.49158 2.58327 8.50825C3.23882 9.52492 4.24438 10.6555 5.59994 11.8999ZM5.59994 13.6666C3.81105 12.1444 2.47494 10.7305 1.5916 9.42492C0.708268 8.11936 0.266602 6.91103 0.266602 5.79992C0.266602 4.13325 0.802713 2.80547 1.87494 1.81659C2.94716 0.827696 4.18882 0.333252 5.59994 0.333252C7.01105 0.333252 8.25271 0.827696 9.32493 1.81659C10.3972 2.80547 10.9333 4.13325 10.9333 5.79992C10.9333 6.91103 10.4916 8.11936 9.60827 9.42492C8.72494 10.7305 7.38882 12.1444 5.59994 13.6666Z" fill="#3F51B5"/>
</svg>
