<svg width="12" height="14" viewBox="0 0 12 14" fill="none" xmlns="http://www.w3.org/2000/svg">
<path d="M7.79503 11.0001C7.36683 11.0001 7.00337 10.8507 6.70465 10.552C6.40594 10.2533 6.25658 9.88983 6.25658 9.46163C6.25658 9.03343 6.40594 8.66997 6.70465 8.37124C7.00337 8.07253 7.36683 7.92318 7.79503 7.92318C8.22323 7.92318 8.58669 8.07253 8.88541 8.37124C9.18412 8.66997 9.33348 9.03343 9.33348 9.46163C9.33348 9.88983 9.18412 10.2533 8.88541 10.552C8.58669 10.8507 8.22323 11.0001 7.79503 11.0001ZM1.53863 13.3334C1.20187 13.3334 0.916829 13.2167 0.683496 12.9834C0.450163 12.7501 0.333496 12.465 0.333496 12.1283V3.20523C0.333496 2.86847 0.450163 2.58343 0.683496 2.35009C0.916829 2.11676 1.20187 2.00009 1.53863 2.00009H2.46171V0.589844H3.48733V2.00009H8.5386V0.589844H9.53858V2.00009H10.4617C10.7984 2.00009 11.0835 2.11676 11.3168 2.35009C11.5501 2.58343 11.6668 2.86847 11.6668 3.20523V12.1283C11.6668 12.465 11.5501 12.7501 11.3168 12.9834C11.0835 13.2167 10.7984 13.3334 10.4617 13.3334H1.53863ZM1.53863 12.3334H10.4617C10.513 12.3334 10.56 12.312 10.6027 12.2693C10.6454 12.2266 10.6668 12.1795 10.6668 12.1283V5.87189H1.33348V12.1283C1.33348 12.1795 1.35485 12.2266 1.39758 12.2693C1.44032 12.312 1.48734 12.3334 1.53863 12.3334ZM1.33348 4.87191H10.6668V3.20523C10.6668 3.15394 10.6454 3.10692 10.6027 3.06418C10.56 3.02144 10.513 3.00008 10.4617 3.00008H1.53863C1.48734 3.00008 1.44032 3.02144 1.39758 3.06418C1.35485 3.10692 1.33348 3.15394 1.33348 3.20523V4.87191Z" fill="#14315A"/>
</svg>
